HIERARCHY
ROOT Hips
{
	OFFSET	0.00	0.00	0.00
	CHANNELS 6 Xposition Yposition Zposition Zrotation Xrotation Yrotation
	JOINT LeftUpLeg
	{
		OFFSET	 0.126116	-0.014019	-0.065224
		CHANNELS 3 Zrotation Xrotation Yrotation
		JOINT LeftLeg
		{
			OFFSET	 0.000000	 0.000000	 0.569914
			CHANNELS 3 Zrotation Xrotation Yrotation
			JOINT LeftFoot
			{
				OFFSET	 0.000000	 0.000000	 0.544423
				CHANNELS 3 Zrotation Xrotation Yrotation
				JOINT LeftToeBase
				{
					OFFSET	 0.000000	 0.000000	 0.207117
					CHANNELS 3 Zrotation Xrotation Yrotation
					End Site
					{
						OFFSET	 0.000000	 0.000000	 0.207117
					}
				}
			}
		}
	}
	JOINT RightUpLeg
	{
		OFFSET	-0.124023	-0.008373	-0.065224
		CHANNELS 3 Zrotation Xrotation Yrotation
		JOINT RightLeg
		{
			OFFSET	 0.000000	 0.000000	 0.570047
			CHANNELS 3 Zrotation Xrotation Yrotation
			JOINT RightFoot
			{
				OFFSET	 0.000000	 0.000000	 0.544354
				CHANNELS 3 Zrotation Xrotation Yrotation
				JOINT RightToeBase
				{
					OFFSET	 0.000000	 0.000000	 0.207540
					CHANNELS 3 Zrotation Xrotation Yrotation
					End Site
					{
						OFFSET	 0.000000	 0.000000	 0.207540
					}
				}
			}
		}
	}
	JOINT Spine
	{
		OFFSET	 0.000184	-0.007763	 0.117403
		CHANNELS 3 Zrotation Xrotation Yrotation
		JOINT Spine1
		{
			OFFSET	 0.000000	 0.000000	 0.137269
			CHANNELS 3 Zrotation Xrotation Yrotation
			JOINT Spine2
			{
				OFFSET	 0.000000	 0.000000	 0.156879
				CHANNELS 3 Zrotation Xrotation Yrotation
				JOINT LeftShoulder
				{
					OFFSET	 0.080501	-0.002496	 0.160144
					CHANNELS 3 Zrotation Xrotation Yrotation
					JOINT LeftArm
					{
						OFFSET	 0.000000	 0.000000	 0.164363
						CHANNELS 3 Zrotation Xrotation Yrotation
						JOINT LeftForeArm
						{
							OFFSET	 0.000000	 0.000000	 0.364576
							CHANNELS 3 Zrotation Xrotation Yrotation
							JOINT LeftHand
							{
								OFFSET	 0.000000	 0.000000	 0.360812
								CHANNELS 3 Zrotation Xrotation Yrotation
								JOINT LeftHandIndex1
								{
									OFFSET	 0.000000	 0.000000	 0.086006
									CHANNELS 3 Zrotation Xrotation Yrotation
									JOINT LeftHandIndex2
									{
										OFFSET	 0.000000	 0.000000	 0.047237
										CHANNELS 3 Zrotation Xrotation Yrotation
										JOINT LeftHandIndex3
										{
											OFFSET	-0.004284	-0.000551	 0.038165
											CHANNELS 3 Zrotation Xrotation Yrotation
											End Site
											{
												OFFSET	-0.004284	-0.000551	 0.038165
											}
										}
									}
								}
							}
						}
					}
				}
				JOINT Neck
				{
					OFFSET	 0.000000	 0.000000	 0.176489
					CHANNELS 3 Zrotation Xrotation Yrotation
					JOINT Head
					{
						OFFSET	 0.000000	-0.001747	 0.077940
						CHANNELS 3 Zrotation Xrotation Yrotation
						End Site
						{
							OFFSET	 0.000000	-0.001747	 0.077940
						}
					}
				}
				JOINT RightShoulder
				{
					OFFSET	-0.080363	 0.000306	 0.159706
					CHANNELS 3 Zrotation Xrotation Yrotation
					JOINT RightArm
					{
						OFFSET	 0.000000	 0.000000	 0.164196
						CHANNELS 3 Zrotation Xrotation Yrotation
						JOINT RightForeArm
						{
							OFFSET	 0.000000	 0.000000	 0.365611
							CHANNELS 3 Zrotation Xrotation Yrotation
							JOINT RightHand
							{
								OFFSET	 0.000000	 0.000000	 0.360648
								CHANNELS 3 Zrotation Xrotation Yrotation
								JOINT RightHandIndex1
								{
									OFFSET	 0.000000	 0.000000	 0.069977
									CHANNELS 3 Zrotation Xrotation Yrotation
									JOINT RightHandIndex2
									{
										OFFSET	 0.000000	 0.000000	 0.052305
										CHANNELS 3 Zrotation Xrotation Yrotation
										JOINT RightHandIndex3
										{
											OFFSET	 0.009002	-0.000782	 0.042196
											CHANNELS 3 Zrotation Xrotation Yrotation
											End Site
											{
												OFFSET	 0.009002	-0.000782	 0.042196
											}
										}
									}
								}
							}
						}
					}
				}
			}
		}
	}
}
MOTION
Frames:    6
Frame Time: 0.03333334
-0.648955	-0.101128	 1.269968	-159.382400	 9.754004	 8.917926	-7.859156	-11.949240	 166.239500	-9.091552	-30.678870	-3.656724	-69.339860	 83.619980	 65.864810	-2.385833	 28.452760	 0.000004	 34.308680	-48.416390	-171.710600	-30.253570	-58.991070	-16.754050	 30.076980	 35.397430	-39.369710	 2.384659	 28.388700	-0.000001	 23.866560	-20.965280	-13.638850	 45.080490	 27.815990	 0.472636	-4.044213	-4.534915	-5.415301	-91.776180	 78.527420	-180.000000	 23.116290	 53.335910	-30.829930	-8.593469	-6.538449	-45.185080	 5.111112	-33.843070	-4.973247	-4.131196	 21.524690	 0.986298	-5.167839	 0.733520	 3.519257	-1.378229	 35.397820	-2.634230	-14.139240	 16.457800	-7.420774	-24.997080	 3.781134	 5.342176	 89.782100	 78.203890	 180.000000	 3.828815	 65.000860	-11.739310	-2.293057	-8.389281	 28.366860	 90.420540	-60.149610	-5.821846	 5.715225	 19.176060	-3.692089	 5.027514	 0.245388	-9.378011	-2.350882	 35.473990	 5.254307
-0.647746	-0.099891	 1.271396	-160.015200	 9.705792	 9.459638	-6.624248	-11.867610	 165.679100	-8.710044	-30.507730	-3.442540	-86.248980	 85.839670	 81.874860	-2.385833	 28.452760	 0.000004	 34.894970	-48.414490	-172.093500	-23.914940	-59.396580	-11.251670	 46.560090	 46.695950	-47.607540	 2.384659	 28.388700	-0.000001	 23.339430	-22.777240	-15.272980	 45.948000	 30.690320	-0.660860	-4.070191	-5.545272	-5.169491	-91.776170	 78.527360	 180.000000	 23.373970	 53.114000	-31.039460	-8.068687	-7.023211	-44.964630	 5.795366	-33.261550	-5.295933	-4.131196	 21.524690	 0.986298	-5.167839	 0.733520	 3.519257	-1.378229	 35.397820	-2.634230	-14.004910	 16.269040	-7.786795	-25.095440	 3.531171	 5.065757	 89.782070	 78.203920	-180.000000	 4.209986	 64.987640	-11.938470	-3.314895	-8.909877	 28.151300	 92.046730	-58.782270	-2.202452	 5.715225	 19.176060	-3.692089	 5.027514	 0.245388	-9.378011	-2.350882	 35.473990	 5.254307
-0.642476	-0.095588	 1.271542	-162.148300	 10.589900	 9.575418	-2.947015	-12.739850	 165.596400	-6.721369	-29.867200	-2.379195	-157.327500	 84.943240	 150.745500	-2.385833	 28.452760	 0.000004	 33.480930	-49.600110	-172.207500	-18.558330	-59.106320	-6.581820	 56.861370	 53.625840	-53.236930	 2.384659	 28.388700	-0.000001	 25.314970	-23.192710	-15.197820	 45.611680	 30.658140	 1.537213	-3.998144	-4.972897	-6.212937	-91.776160	 78.527400	 180.000000	 23.120830	 52.872340	-30.930350	-7.110522	-7.977245	-44.865770	 6.486987	-32.655910	-5.754261	-4.131196	 21.524690	 0.986298	-5.167839	 0.733520	 3.519257	-1.378229	 35.397820	-2.634230	-13.902310	 16.858960	-7.793265	-24.954310	 3.182680	 5.069307	 89.782100	 78.203870	 180.000000	 3.833405	 65.126460	-10.797920	-5.642501	-9.891212	 27.215780	 89.772920	-59.121280	 0.458616	 5.715225	 19.176060	-3.692089	 5.027514	 0.245388	-9.378011	-2.350882	 35.473990	 5.254307
-0.637335	-0.091177	 1.272179	-161.981900	 11.030910	 7.836893	-1.635666	-12.229380	 167.320100	-5.108918	-27.890020	-1.477836	 161.396000	 80.481720	-169.525300	-2.385833	 28.452760	 0.000004	 38.631820	-47.997480	-168.250100	-18.199880	-59.321000	-6.286772	 69.327970	 55.156840	-63.269570	 2.384659	 28.388700	-0.000001	 25.797800	-24.111560	-12.804220	 45.971100	 32.405400	-0.087564	-3.923672	-5.953677	-6.300254	-91.776120	 78.527360	 180.000000	 23.181280	 52.904770	-31.189910	-6.691095	-8.270899	-44.399430	 6.796997	-32.313200	-5.983238	-4.131196	 21.524690	 0.986298	-5.167839	 0.733520	 3.519257	-1.378229	 35.397820	-2.634230	-13.579000	 17.150210	-8.068092	-24.866840	 3.428065	 6.272425	 89.782070	 78.203900	-180.000000	 2.612748	 64.939800	-9.197352	-6.425758	-10.209620	 26.906150	 90.567460	-58.340690	 3.978221	 5.715225	 19.176060	-3.692089	 5.027514	 0.245388	-9.378011	-2.350882	 35.473990	 5.254307
-0.628682	-0.084919	 1.271968	-161.839300	 10.038720	 6.395429	-2.556980	-9.337883	 168.679600	-3.166630	-25.667310	-0.526116	 157.164400	 79.661510	-166.805300	-2.385833	 28.452760	 0.000004	 40.540280	-44.969790	-167.243100	-17.376970	-58.756600	-5.543730	 73.150360	 57.726130	-64.427280	 2.384659	 28.388700	-0.000001	 27.307960	-20.924470	-9.913671	 44.713840	 29.627680	-0.689565	-3.418515	-5.198261	-5.153700	-91.776180	 78.527420	 180.000000	 23.310300	 52.331000	-31.298360	-6.367214	-8.586109	-44.357350	 7.124942	-31.865320	-6.258872	-4.131196	 21.524690	 0.986298	-5.167839	 0.733520	 3.519257	-1.378229	 35.397820	-2.634230	-12.936990	 17.042770	-9.002627	-24.916050	 4.048546	 8.514811	 89.782150	 78.203870	 179.999900	-0.853761	 64.981650	-5.335933	-6.231120	-9.994415	 26.673030	 93.011260	-64.129280	 10.833680	 5.715225	 19.176060	-3.692089	 5.027514	 0.245388	-9.378011	-2.350882	 35.473990	 5.254307
-0.618867	-0.075568	 1.272041	-161.811900	 10.223050	 7.966822	 3.232649	-9.854325	 166.075800	-8.122428	-25.138780	-2.629535	 116.530100	 85.638530	-122.752600	-2.385833	 28.452760	 0.000004	 40.929240	-44.069850	-168.897900	-17.385230	-56.950420	-5.442582	 77.592580	 58.219600	-67.994320	 2.384659	 28.388700	-0.000001	 25.906320	-22.240270	-12.195840	 45.504510	 30.565620	-0.967729	-3.338179	-5.098412	-5.385386	-91.776240	 78.527430	-180.000000	 24.221150	 51.955460	-32.323320	-6.200860	-8.504673	-43.534610	 7.031124	-31.587680	-6.408895	-4.131196	 21.524690	 0.986298	-5.167839	 0.733520	 3.519257	-1.378229	 35.397820	-2.634230	-12.684680	 17.345500	-9.317939	-24.936920	 3.509473	 9.001040	 89.782120	 78.203870	 180.000000	-2.041095	 64.632420	-4.072829	-3.100109	-8.729082	 28.003360	 109.317300	-69.625380	 27.961990	 5.715225	 19.176060	-3.692089	 5.027514	 0.245388	-9.378011	-2.350882	 35.473990	 5.254307
